<?xml version="1.0" encoding="utf-8"?>
<!-- Generator: Adobe Illustrator 16.0.0, SVG Export Plug-In . SVG Version: 6.00 Build 0)  -->
<!DOCTYPE svg PUBLIC "-//W3C//DTD SVG 1.1//EN" "http://www.w3.org/Graphics/SVG/1.1/DTD/svg11.dtd">
<svg version="1.1" id="Layer_1" xmlns="http://www.w3.org/2000/svg" xmlns:xlink="http://www.w3.org/1999/xlink" x="0px" y="0px"
	 width="400px" height="80px" viewBox="0 0 400 80" enable-background="new 0 0 400 80" xml:space="preserve">
<path fill="#FFFFFF" d="M103.898,14.549h8.956c4.905,0,8.397,0.438,10.478,1.313c2.079,0.876,3.754,2.329,5.019,4.362
	c1.268,2.033,1.901,4.437,1.901,7.214c0,2.918-0.701,5.358-2.097,7.32c-1.401,1.962-3.508,3.446-6.324,4.452l10.517,19.741h-9.239
	l-9.983-18.806h-0.774v18.806h-8.453V14.549z M112.351,31.905h2.647c2.687,0,4.539-0.353,5.553-1.059
	c1.013-0.707,1.519-1.878,1.519-3.513c0-0.969-0.25-1.813-0.75-2.529c-0.504-0.717-1.176-1.231-2.017-1.544
	c-0.842-0.313-2.388-0.47-4.636-0.47h-2.316V31.905z"/>
<rect x="133.796" y="42.844" fill="#FFFFFF" width="13.878" height="4.653"/>
<rect x="133.796" y="54.194" fill="#FFFFFF" width="13.878" height="4.757"/>
<rect x="133.796" y="33.5" fill="#FFFFFF" width="13.878" height="4.74"/>
<path fill="#FFFFFF" d="M152.208,33.5h5.739c3.7,0,6.448,0.458,8.247,1.375c1.797,0.917,3.278,2.408,4.442,4.472
	c1.164,2.066,1.746,4.476,1.746,7.233c0,1.96-0.326,3.763-0.977,5.406c-0.65,1.645-1.549,3.008-2.696,4.092
	c-1.147,1.085-2.389,1.835-3.726,2.25c-1.336,0.415-3.654,0.622-6.949,0.622h-5.827V33.5z M157.018,38.172v16.056h2.25
	c2.215,0,3.82-0.254,4.818-0.762c0.998-0.509,1.815-1.363,2.449-2.563c0.634-1.201,0.952-2.681,0.952-4.435
	c0-2.702-0.756-4.797-2.268-6.288c-1.36-1.339-3.547-2.008-6.557-2.008H157.018z"/>
<path fill="#FFFFFF" d="M176.829,33.5h4.862v16.458c0,1.418,0.124,2.421,0.372,3.009c0.249,0.587,0.658,1.057,1.229,1.408
	c0.571,0.352,1.26,0.526,2.067,0.526c0.854,0,1.589-0.195,2.207-0.587c0.616-0.392,1.043-0.891,1.28-1.495
	c0.235-0.605,0.354-1.761,0.354-3.467V33.5h4.862v15.174c0,2.561-0.144,4.337-0.433,5.328c-0.288,0.992-0.839,1.95-1.652,2.873
	c-0.813,0.923-1.751,1.605-2.811,2.05c-1.062,0.444-2.297,0.667-3.702,0.667c-1.847,0-3.452-0.425-4.82-1.272
	c-1.367-0.848-2.345-1.908-2.933-3.185c-0.588-1.274-0.882-3.428-0.882-6.461V33.5z"/>
<polygon fill="#FFFFFF" points="197.551,33.653 202.324,33.653 206.254,39.64 203.836,43.002 "/>
<polygon fill="#FFFFFF" points="207.832,42.054 205.333,45.896 213.647,58.715 218.661,58.715 "/>
<polygon fill="#FFFFFF" points="213.325,33.653 218.661,33.653 202.018,58.715 197.003,58.715 "/>
<path fill-rule="evenodd" clip-rule="evenodd" fill="none" stroke="#FFFFFF" stroke-width="3" stroke-miterlimit="10" d="
	M8.18,4.759C13.518-1.533,35.114,8.78,57.5,29.079c22.229,20.157,38.484,38.327,33.146,44.62
	c-5.338,6.294-28.201-4.328-51.064-23.724C16.718,30.581,2.841,11.053,8.18,4.759z"/>
<ellipse transform="matrix(-0.6469 0.7626 -0.7626 -0.6469 110.7669 30.4872)" fill-rule="evenodd" clip-rule="evenodd" fill="none" stroke="#FFFFFF" stroke-width="3" stroke-miterlimit="10" cx="48.325" cy="40.888" rx="14.942" ry="54.287"/>
<path fill-rule="evenodd" clip-rule="evenodd" fill="none" stroke="#FFFFFF" stroke-width="3" stroke-miterlimit="10" d="
	M57.89,49.976C35.026,69.371,12.163,79.993,6.825,73.699c-5.339-6.293,10.917-24.463,33.146-44.62
	C62.357,8.78,83.954-1.533,89.292,4.759C94.63,11.053,80.753,30.581,57.89,49.976z"/>
<ellipse transform="matrix(0.7626 -0.6469 0.6469 0.7626 -14.7816 41.5)" fill-rule="evenodd" clip-rule="evenodd" fill="none" stroke="#FFFFFF" stroke-width="3" stroke-miterlimit="10" cx="49.146" cy="40.887" rx="54.288" ry="14.942"/>
<g>
	<path fill="#FFFFFF" d="M236.521,15.104h6.265l7.831,30.358l7.901-30.358h6.261l5.667,43.525h-6.218l-3.622-27.488l-7.177,27.488
		h-5.666l-7.113-27.488l-3.708,27.488h-6.27L236.521,15.104z"/>
</g>
<g>
	<path fill="#FFFFFF" d="M275.813,33.705h4.71v24.924h-4.71V33.705z"/>
	<path fill="#FFFFFF" d="M285.877,33.705h4.551l10.665,16.402V33.705h4.744v24.924h-4.563l-10.652-16.351v16.351h-4.744V33.705z"/>
	<path fill="#FFFFFF" d="M311.191,33.705h4.71v24.924h-4.71V33.705z"/>
	<path fill="#FFFFFF" d="M323.657,33.705h4.622l5.778,17.384l5.83-17.384h4.619l4.182,24.924h-4.588l-2.673-15.741l-5.295,15.741
		h-4.182l-5.248-15.741l-2.736,15.741h-4.625L323.657,33.705z"/>
	<path fill="#FFFFFF" d="M360.07,33.705h4.812l9.586,24.924h-4.931l-1.949-5.134h-10.171l-2.027,5.134h-4.931L360.07,33.705z
		 M362.506,40.313l-3.344,8.557h6.668L362.506,40.313z"/>
	<path fill="#FFFFFF" d="M378.137,33.705h4.744v20.4h6.913v4.524h-11.657V33.705z"/>
</g>
</svg>
